<mxfile host="65bd71144e">
    <diagram id="lV_YoobEQGs-U5aL4UGH" name="Page-1">
        <mxGraphModel dx="1083" dy="801" grid="0" gridSize="10" guides="1" tooltips="1" connect="1" arrows="1" fold="1" page="1" pageScale="1" pageWidth="850" pageHeight="1100" math="0" shadow="0">
            <root>
                <mxCell id="0"/>
                <mxCell id="1" parent="0"/>
                <mxCell id="8" value="template &lt;typename _Tp, typename _Dp = default_delete&lt;_Tp&gt;&gt;&#10;class unique_ptr" style="swimlane;fontStyle=1;align=left;verticalAlign=top;childLayout=stackLayout;horizontal=1;startSize=40;horizontalStack=0;resizeParent=1;resizeParentMax=0;resizeLast=0;collapsible=1;marginBottom=0;fontSize=12;swimlaneLine=1;fillColor=#008a00;fontColor=#ffffff;strokeColor=#005700;" parent="1" vertex="1">
                    <mxGeometry x="448.5" y="118" width="374" height="100" as="geometry"/>
                </mxCell>
                <mxCell id="9" value="- _M_t: __uniq_ptr_data&lt;_Tp, _Dp&gt;" style="text;align=left;verticalAlign=top;spacingLeft=4;spacingRight=4;overflow=hidden;rotatable=0;points=[[0,0.5],[1,0.5]];portConstraint=eastwest;fontSize=12;swimlaneLine=1;" parent="8" vertex="1">
                    <mxGeometry y="40" width="374" height="26" as="geometry"/>
                </mxCell>
                <mxCell id="10" value="" style="line;strokeWidth=1;align=left;verticalAlign=middle;spacingTop=-1;spacingLeft=3;spacingRight=3;rotatable=0;labelPosition=right;points=[];portConstraint=eastwest;fontSize=12;swimlaneLine=1;" parent="8" vertex="1">
                    <mxGeometry y="66" width="374" height="8" as="geometry"/>
                </mxCell>
                <mxCell id="11" value="+ using pointer   = typename __uniq_ptr_impl&lt;_Tp, _Dp&gt;::pointer;" style="text;align=left;verticalAlign=top;spacingLeft=4;spacingRight=4;overflow=hidden;rotatable=0;points=[[0,0.5],[1,0.5]];portConstraint=eastwest;fontSize=12;swimlaneLine=1;" parent="8" vertex="1">
                    <mxGeometry y="74" width="374" height="26" as="geometry"/>
                </mxCell>
                <mxCell id="12" value="template&lt;typename _Tp, typename _Dp&gt;&#10;class unique_ptr&lt;_Tp[], _Dp&gt;" style="swimlane;fontStyle=1;align=left;verticalAlign=top;childLayout=stackLayout;horizontal=1;startSize=40;horizontalStack=0;resizeParent=1;resizeParentMax=0;resizeLast=0;collapsible=1;marginBottom=0;fontSize=12;swimlaneLine=1;fillColor=#008a00;fontColor=#ffffff;strokeColor=#005700;" parent="1" vertex="1">
                    <mxGeometry x="457" y="258" width="360.5" height="100" as="geometry"/>
                </mxCell>
                <mxCell id="13" value="- _M_t: __uniq_ptr_data&lt;_Tp, _Dp&gt;" style="text;align=left;verticalAlign=top;spacingLeft=4;spacingRight=4;overflow=hidden;rotatable=0;points=[[0,0.5],[1,0.5]];portConstraint=eastwest;fontSize=12;swimlaneLine=1;" parent="12" vertex="1">
                    <mxGeometry y="40" width="360.5" height="26" as="geometry"/>
                </mxCell>
                <mxCell id="14" value="" style="line;strokeWidth=1;align=left;verticalAlign=middle;spacingTop=-1;spacingLeft=3;spacingRight=3;rotatable=0;labelPosition=right;points=[];portConstraint=eastwest;fontSize=12;swimlaneLine=1;" parent="12" vertex="1">
                    <mxGeometry y="66" width="360.5" height="8" as="geometry"/>
                </mxCell>
                <mxCell id="15" value="+ using pointer   = typename __uniq_ptr_impl&lt;_Tp, _Dp&gt;::pointer;" style="text;align=left;verticalAlign=top;spacingLeft=4;spacingRight=4;overflow=hidden;rotatable=0;points=[[0,0.5],[1,0.5]];portConstraint=eastwest;fontSize=12;swimlaneLine=1;" parent="12" vertex="1">
                    <mxGeometry y="74" width="360.5" height="26" as="geometry"/>
                </mxCell>
                <mxCell id="19" value="template &lt;typename _Tp, typename _Dp,&#10;      bool = is_move_constructible&lt;_Dp&gt;::value,&#10;      bool = is_move_assignable&lt;_Dp&gt;::value&gt;&#10;    struct __uniq_ptr_dat" style="swimlane;fontStyle=1;align=left;verticalAlign=top;childLayout=stackLayout;horizontal=1;startSize=71;horizontalStack=0;resizeParent=1;resizeParentMax=0;resizeLast=0;collapsible=1;marginBottom=0;fontSize=12;swimlaneLine=1;fillColor=#008a00;fontColor=#ffffff;strokeColor=#005700;" parent="1" vertex="1">
                    <mxGeometry x="27" y="180" width="335" height="131" as="geometry"/>
                </mxCell>
                <mxCell id="20" value="+       __uniq_ptr_data(__uniq_ptr_data&amp;&amp;) = default;" style="text;align=left;verticalAlign=top;spacingLeft=4;spacingRight=4;overflow=hidden;rotatable=0;points=[[0,0.5],[1,0.5]];portConstraint=eastwest;fontSize=12;swimlaneLine=1;" parent="19" vertex="1">
                    <mxGeometry y="71" width="335" height="26" as="geometry"/>
                </mxCell>
                <mxCell id="21" value="" style="line;strokeWidth=1;align=left;verticalAlign=middle;spacingTop=-1;spacingLeft=3;spacingRight=3;rotatable=0;labelPosition=right;points=[];portConstraint=eastwest;fontSize=12;swimlaneLine=1;" parent="19" vertex="1">
                    <mxGeometry y="97" width="335" height="8" as="geometry"/>
                </mxCell>
                <mxCell id="22" value="+ __uniq_ptr_data&amp; operator=(__uniq_ptr_data&amp;&amp;) = default;" style="text;align=left;verticalAlign=top;spacingLeft=4;spacingRight=4;overflow=hidden;rotatable=0;points=[[0,0.5],[1,0.5]];portConstraint=eastwest;fontSize=12;swimlaneLine=1;" parent="19" vertex="1">
                    <mxGeometry y="105" width="335" height="26" as="geometry"/>
                </mxCell>
                <mxCell id="23" value="  template &lt;typename _Tp, typename _Dp&gt;&#10;    class __uniq_ptr_impl" style="swimlane;fontStyle=1;align=left;verticalAlign=top;childLayout=stackLayout;horizontal=1;startSize=39;horizontalStack=0;resizeParent=1;resizeParentMax=0;resizeLast=0;collapsible=1;marginBottom=0;fontSize=12;swimlaneLine=1;fillColor=#008a00;strokeColor=#005700;fontColor=#ffffff;" parent="1" vertex="1">
                    <mxGeometry x="27" y="10" width="335" height="99" as="geometry"/>
                </mxCell>
                <mxCell id="24" value="- _M_t: tuple&lt;pointer, _Dp&gt;" style="text;align=left;verticalAlign=top;spacingLeft=4;spacingRight=4;overflow=hidden;rotatable=0;points=[[0,0.5],[1,0.5]];portConstraint=eastwest;fontSize=12;swimlaneLine=1;" parent="23" vertex="1">
                    <mxGeometry y="39" width="335" height="26" as="geometry"/>
                </mxCell>
                <mxCell id="25" value="" style="line;strokeWidth=1;align=left;verticalAlign=middle;spacingTop=-1;spacingLeft=3;spacingRight=3;rotatable=0;labelPosition=right;points=[];portConstraint=eastwest;fontSize=12;swimlaneLine=1;" parent="23" vertex="1">
                    <mxGeometry y="65" width="335" height="8" as="geometry"/>
                </mxCell>
                <mxCell id="26" value="+ using pointer = typename _Ptr&lt;_Tp, _Dp&gt;::type;" style="text;align=left;verticalAlign=top;spacingLeft=4;spacingRight=4;overflow=hidden;rotatable=0;points=[[0,0.5],[1,0.5]];portConstraint=eastwest;fontSize=12;swimlaneLine=1;" parent="23" vertex="1">
                    <mxGeometry y="73" width="335" height="26" as="geometry"/>
                </mxCell>
                <mxCell id="27" value="Extends" style="endArrow=block;endSize=16;endFill=0;html=1;fontSize=12;exitX=0.5;exitY=0;exitDx=0;exitDy=0;swimlaneLine=1;" parent="1" source="19" target="26" edge="1">
                    <mxGeometry x="-0.1268" y="-24" width="160" relative="1" as="geometry">
                        <mxPoint x="82" y="491" as="sourcePoint"/>
                        <mxPoint x="171" y="137" as="targetPoint"/>
                        <mxPoint as="offset"/>
                    </mxGeometry>
                </mxCell>
                <mxCell id="28" value="" style="endArrow=diamondThin;endFill=1;endSize=24;html=1;fontSize=12;entryX=-0.002;entryY=0.194;entryDx=0;entryDy=0;entryPerimeter=0;swimlaneLine=1;" parent="1" target="12" edge="1">
                    <mxGeometry width="160" relative="1" as="geometry">
                        <mxPoint x="361" y="212" as="sourcePoint"/>
                        <mxPoint x="601" y="361" as="targetPoint"/>
                    </mxGeometry>
                </mxCell>
                <mxCell id="29" value="" style="endArrow=diamondThin;endFill=1;endSize=24;html=1;fontSize=12;entryX=0;entryY=0.25;entryDx=0;entryDy=0;exitX=1;exitY=0.25;exitDx=0;exitDy=0;swimlaneLine=1;" parent="1" source="19" target="8" edge="1">
                    <mxGeometry width="160" relative="1" as="geometry">
                        <mxPoint x="372.3349999999998" y="229.038" as="sourcePoint"/>
                        <mxPoint x="514.22" y="224.39999999999998" as="targetPoint"/>
                    </mxGeometry>
                </mxCell>
                <mxCell id="37" value="Extends" style="endArrow=block;endSize=16;endFill=0;html=1;fontSize=12;exitX=0.5;exitY=0;exitDx=0;exitDy=0;swimlaneLine=1;entryX=0.5;entryY=1;entryDx=0;entryDy=0;" parent="1" source="67" target="57" edge="1">
                    <mxGeometry x="-0.1268" y="-24" width="160" relative="1" as="geometry">
                        <mxPoint x="631" y="943" as="sourcePoint"/>
                        <mxPoint x="692" y="852" as="targetPoint"/>
                        <mxPoint as="offset"/>
                    </mxGeometry>
                </mxCell>
                <mxCell id="39" value="" style="endArrow=diamondThin;endFill=1;endSize=24;html=1;fontSize=12;entryX=0;entryY=0.5;entryDx=0;entryDy=0;swimlaneLine=1;exitX=1;exitY=0.5;exitDx=0;exitDy=0;" parent="1" source="54" target="59" edge="1">
                    <mxGeometry width="160" relative="1" as="geometry">
                        <mxPoint x="385.5000000000002" y="795" as="sourcePoint"/>
                        <mxPoint x="456.5000000000002" y="798.5" as="targetPoint"/>
                    </mxGeometry>
                </mxCell>
                <mxCell id="40" value="template&lt;_Lock_policy _Lp = __default_lock_policy&gt;&#10;    class _Sp_counted_base" style="swimlane;fontStyle=1;align=left;verticalAlign=top;childLayout=stackLayout;horizontal=1;startSize=40;horizontalStack=0;resizeParent=1;resizeParentMax=0;resizeLast=0;collapsible=1;marginBottom=0;fontSize=12;swimlaneLine=1;fillColor=#008a00;fontColor=#ffffff;strokeColor=#005700;" parent="1" vertex="1">
                    <mxGeometry x="14" y="597" width="335" height="126" as="geometry"/>
                </mxCell>
                <mxCell id="50" value="+ typedef int _Atomic_word;" style="text;align=left;verticalAlign=top;spacingLeft=4;spacingRight=4;overflow=hidden;rotatable=0;points=[[0,0.5],[1,0.5]];portConstraint=eastwest;fontSize=12;swimlaneLine=1;" parent="40" vertex="1">
                    <mxGeometry y="40" width="335" height="26" as="geometry"/>
                </mxCell>
                <mxCell id="41" value="- _M_use_count: _Atomic_word // #shared" style="text;align=left;verticalAlign=top;spacingLeft=4;spacingRight=4;overflow=hidden;rotatable=0;points=[[0,0.5],[1,0.5]];portConstraint=eastwest;fontSize=12;swimlaneLine=1;" parent="40" vertex="1">
                    <mxGeometry y="66" width="335" height="26" as="geometry"/>
                </mxCell>
                <mxCell id="42" value="" style="line;strokeWidth=1;align=left;verticalAlign=middle;spacingTop=-1;spacingLeft=3;spacingRight=3;rotatable=0;labelPosition=right;points=[];portConstraint=eastwest;fontSize=12;swimlaneLine=1;" parent="40" vertex="1">
                    <mxGeometry y="92" width="335" height="8" as="geometry"/>
                </mxCell>
                <mxCell id="43" value="- _M_weak_count: _Atomic_word // #weak + (#shared != 0)" style="text;align=left;verticalAlign=top;spacingLeft=4;spacingRight=4;overflow=hidden;rotatable=0;points=[[0,0.5],[1,0.5]];portConstraint=eastwest;fontSize=12;swimlaneLine=1;" parent="40" vertex="1">
                    <mxGeometry y="100" width="335" height="26" as="geometry"/>
                </mxCell>
                <mxCell id="44" value="" style="endArrow=diamondThin;endFill=1;endSize=24;html=1;fontSize=12;entryX=0.515;entryY=0.001;entryDx=0;entryDy=0;swimlaneLine=1;entryPerimeter=0;" parent="1" source="43" target="52" edge="1">
                    <mxGeometry width="160" relative="1" as="geometry">
                        <mxPoint x="7.5" y="579" as="sourcePoint"/>
                        <mxPoint x="107.94600000000014" y="804.25" as="targetPoint"/>
                    </mxGeometry>
                </mxCell>
                <mxCell id="45" value="  template&lt;_Lock_policy _Lp&gt;&#10;    class _Mutex_base" style="swimlane;fontStyle=1;align=left;verticalAlign=top;childLayout=stackLayout;horizontal=1;startSize=40;horizontalStack=0;resizeParent=1;resizeParentMax=0;resizeLast=0;collapsible=1;marginBottom=0;fontSize=12;swimlaneLine=1;fillColor=#008a00;fontColor=#ffffff;strokeColor=#005700;" parent="1" vertex="1">
                    <mxGeometry x="33.5" y="492" width="182" height="48" as="geometry"/>
                </mxCell>
                <mxCell id="51" value="" style="line;strokeWidth=1;align=left;verticalAlign=middle;spacingTop=-1;spacingLeft=3;spacingRight=3;rotatable=0;labelPosition=right;points=[];portConstraint=eastwest;fontSize=12;swimlaneLine=1;" parent="45" vertex="1">
                    <mxGeometry y="40" width="182" height="8" as="geometry"/>
                </mxCell>
                <mxCell id="49" value="Extends" style="endArrow=block;endSize=16;endFill=0;html=1;fontSize=12;exitX=0.5;exitY=0;exitDx=0;exitDy=0;swimlaneLine=1;entryX=0.5;entryY=1;entryDx=0;entryDy=0;" parent="1" source="40" target="45" edge="1">
                    <mxGeometry x="-0.234" y="-22" width="160" relative="1" as="geometry">
                        <mxPoint x="148.5" y="734" as="sourcePoint"/>
                        <mxPoint x="148.5" y="641" as="targetPoint"/>
                        <mxPoint x="1" as="offset"/>
                    </mxGeometry>
                </mxCell>
                <mxCell id="52" value="template&lt;_Lock_policy _Lp&gt;&#10;class __shared_count" style="swimlane;fontStyle=1;align=left;verticalAlign=top;childLayout=stackLayout;horizontal=1;startSize=40;horizontalStack=0;resizeParent=1;resizeParentMax=0;resizeLast=0;collapsible=1;marginBottom=0;fontSize=12;swimlaneLine=1;fillColor=#008a00;fontColor=#ffffff;strokeColor=#005700;" parent="1" vertex="1">
                    <mxGeometry x="130" y="781" width="228" height="105" as="geometry"/>
                </mxCell>
                <mxCell id="54" value="- friend class __weak_count&lt;_Lp&gt;;" style="text;align=left;verticalAlign=top;spacingLeft=4;spacingRight=4;overflow=hidden;rotatable=0;points=[[0,0.5],[1,0.5]];portConstraint=eastwest;fontSize=12;swimlaneLine=1;" parent="52" vertex="1">
                    <mxGeometry y="40" width="228" height="26" as="geometry"/>
                </mxCell>
                <mxCell id="53" value="- _M_pi: _Sp_counted_base&lt;_Lp&gt;*" style="text;align=left;verticalAlign=top;spacingLeft=4;spacingRight=4;overflow=hidden;rotatable=0;points=[[0,0.5],[1,0.5]];portConstraint=eastwest;fontSize=12;swimlaneLine=1;" parent="52" vertex="1">
                    <mxGeometry y="66" width="228" height="31" as="geometry"/>
                </mxCell>
                <mxCell id="55" value="" style="line;strokeWidth=1;align=left;verticalAlign=middle;spacingTop=-1;spacingLeft=3;spacingRight=3;rotatable=0;labelPosition=right;points=[];portConstraint=eastwest;fontSize=12;swimlaneLine=1;" parent="52" vertex="1">
                    <mxGeometry y="97" width="228" height="8" as="geometry"/>
                </mxCell>
                <mxCell id="57" value="template&lt;typename _Tp, _Lock_policy _Lp&gt;&#10;class __shared_ptr" style="swimlane;fontStyle=1;align=left;verticalAlign=top;childLayout=stackLayout;horizontal=1;startSize=40;horizontalStack=0;resizeParent=1;resizeParentMax=0;resizeLast=0;collapsible=1;marginBottom=0;fontSize=12;swimlaneLine=1;fillColor=#008a00;fontColor=#ffffff;strokeColor=#005700;" parent="1" vertex="1">
                    <mxGeometry x="462.5" y="714" width="342" height="136" as="geometry"/>
                </mxCell>
                <mxCell id="58" value="+ using element_type = typename remove_extent&lt;_Tp&gt;::type;" style="text;align=left;verticalAlign=top;spacingLeft=4;spacingRight=4;overflow=hidden;rotatable=0;points=[[0,0.5],[1,0.5]];portConstraint=eastwest;fontSize=12;swimlaneLine=1;" parent="57" vertex="1">
                    <mxGeometry y="40" width="342" height="26" as="geometry"/>
                </mxCell>
                <mxCell id="59" value="- _M_ptr: element_type*  // Contained pointer." style="text;align=left;verticalAlign=top;spacingLeft=4;spacingRight=4;overflow=hidden;rotatable=0;points=[[0,0.5],[1,0.5]];portConstraint=eastwest;fontSize=12;swimlaneLine=1;" parent="57" vertex="1">
                    <mxGeometry y="66" width="342" height="31" as="geometry"/>
                </mxCell>
                <mxCell id="61" value="- _M_refcount: __shared_count&lt;_Lp&gt;  // Reference counter." style="text;align=left;verticalAlign=top;spacingLeft=4;spacingRight=4;overflow=hidden;rotatable=0;points=[[0,0.5],[1,0.5]];portConstraint=eastwest;fontSize=12;swimlaneLine=1;" parent="57" vertex="1">
                    <mxGeometry y="97" width="342" height="31" as="geometry"/>
                </mxCell>
                <mxCell id="60" value="" style="line;strokeWidth=1;align=left;verticalAlign=middle;spacingTop=-1;spacingLeft=3;spacingRight=3;rotatable=0;labelPosition=right;points=[];portConstraint=eastwest;fontSize=12;swimlaneLine=1;" parent="57" vertex="1">
                    <mxGeometry y="128" width="342" height="8" as="geometry"/>
                </mxCell>
                <mxCell id="67" value="// A smart pointer with reference-counted copy semantics.&#10;&#10;template&lt;typename _Tp&gt;&#10;class shared_ptr" style="swimlane;fontStyle=1;align=left;verticalAlign=top;childLayout=stackLayout;horizontal=1;startSize=62;horizontalStack=0;resizeParent=1;resizeParentMax=0;resizeLast=0;collapsible=1;marginBottom=0;fontSize=12;swimlaneLine=1;fillColor=#008a00;fontColor=#ffffff;strokeColor=#005700;" parent="1" vertex="1">
                    <mxGeometry x="436" y="926" width="379" height="122" as="geometry"/>
                </mxCell>
                <mxCell id="68" value="+ using element_type = typename __shared_ptr&lt;_Tp&gt;::element_type;" style="text;align=left;verticalAlign=top;spacingLeft=4;spacingRight=4;overflow=hidden;rotatable=0;points=[[0,0.5],[1,0.5]];portConstraint=eastwest;fontSize=12;swimlaneLine=1;" parent="67" vertex="1">
                    <mxGeometry y="62" width="379" height="26" as="geometry"/>
                </mxCell>
                <mxCell id="71" value="" style="line;strokeWidth=1;align=left;verticalAlign=middle;spacingTop=-1;spacingLeft=3;spacingRight=3;rotatable=0;labelPosition=right;points=[];portConstraint=eastwest;fontSize=12;swimlaneLine=1;" parent="67" vertex="1">
                    <mxGeometry y="88" width="379" height="8" as="geometry"/>
                </mxCell>
                <mxCell id="82" value="+ friend class weak_ptr&lt;_Tp&gt;;" style="text;align=left;verticalAlign=top;spacingLeft=4;spacingRight=4;overflow=hidden;rotatable=0;points=[[0,0.5],[1,0.5]];portConstraint=eastwest;fontSize=12;swimlaneLine=1;" parent="67" vertex="1">
                    <mxGeometry y="96" width="379" height="26" as="geometry"/>
                </mxCell>
                <mxCell id="72" value="// Define operator* and operator-&gt; for shared_ptr&lt;T&gt;.&#10;&#10;template&lt;typename _Tp, _Lock_policy _Lp,&#10;     bool = is_array&lt;_Tp&gt;::value, bool = is_void&lt;_Tp&gt;::value&gt;&#10;    class __shared_ptr_access" style="swimlane;fontStyle=1;align=left;verticalAlign=top;childLayout=stackLayout;horizontal=1;startSize=82;horizontalStack=0;resizeParent=1;resizeParentMax=0;resizeLast=0;collapsible=1;marginBottom=0;fontSize=12;swimlaneLine=1;fillColor=#008a00;fontColor=#ffffff;strokeColor=#005700;" parent="1" vertex="1">
                    <mxGeometry x="462.5" y="501" width="342" height="168" as="geometry">
                        <mxRectangle x="466" y="518" width="362" height="84" as="alternateBounds"/>
                    </mxGeometry>
                </mxCell>
                <mxCell id="73" value="+ using element_type = _Tp;" style="text;align=left;verticalAlign=top;spacingLeft=4;spacingRight=4;overflow=hidden;rotatable=0;points=[[0,0.5],[1,0.5]];portConstraint=eastwest;fontSize=12;swimlaneLine=1;" parent="72" vertex="1">
                    <mxGeometry y="82" width="342" height="26" as="geometry"/>
                </mxCell>
                <mxCell id="76" value="" style="line;strokeWidth=1;align=left;verticalAlign=middle;spacingTop=-1;spacingLeft=3;spacingRight=3;rotatable=0;labelPosition=right;points=[];portConstraint=eastwest;fontSize=12;swimlaneLine=1;" parent="72" vertex="1">
                    <mxGeometry y="108" width="342" height="8" as="geometry"/>
                </mxCell>
                <mxCell id="80" value="+ element_type&amp; operator*() const noexcept;" style="text;align=left;verticalAlign=top;spacingLeft=4;spacingRight=4;overflow=hidden;rotatable=0;points=[[0,0.5],[1,0.5]];portConstraint=eastwest;fontSize=12;swimlaneLine=1;" parent="72" vertex="1">
                    <mxGeometry y="116" width="342" height="26" as="geometry"/>
                </mxCell>
                <mxCell id="81" value="+ element_type&amp; operator-&gt;() const noexcept;" style="text;align=left;verticalAlign=top;spacingLeft=4;spacingRight=4;overflow=hidden;rotatable=0;points=[[0,0.5],[1,0.5]];portConstraint=eastwest;fontSize=12;swimlaneLine=1;" parent="72" vertex="1">
                    <mxGeometry y="142" width="342" height="26" as="geometry"/>
                </mxCell>
                <mxCell id="78" value="Extends" style="endArrow=block;endSize=16;endFill=0;html=1;fontSize=12;exitX=0.5;exitY=0;exitDx=0;exitDy=0;swimlaneLine=1;entryX=0.5;entryY=1;entryDx=0;entryDy=0;" parent="1" source="57" target="72" edge="1">
                    <mxGeometry x="-0.1268" y="-24" width="160" relative="1" as="geometry">
                        <mxPoint x="418.5" y="727" as="sourcePoint"/>
                        <mxPoint x="418.5" y="651" as="targetPoint"/>
                        <mxPoint as="offset"/>
                    </mxGeometry>
                </mxCell>
                <mxCell id="83" value="  template&lt;typename _Tp&gt;&#10;    struct remove_extent" style="swimlane;fontStyle=1;align=left;verticalAlign=top;childLayout=stackLayout;horizontal=1;startSize=40;horizontalStack=0;resizeParent=1;resizeParentMax=0;resizeLast=0;collapsible=1;marginBottom=0;fontSize=12;swimlaneLine=1;fillColor=#008a00;fontColor=#ffffff;strokeColor=#005700;" parent="1" vertex="1">
                    <mxGeometry x="277.5" y="501" width="165" height="79" as="geometry"/>
                </mxCell>
                <mxCell id="85" value="+ typedef _Tp type;" style="text;align=left;verticalAlign=top;spacingLeft=4;spacingRight=4;overflow=hidden;rotatable=0;points=[[0,0.5],[1,0.5]];portConstraint=eastwest;fontSize=12;swimlaneLine=1;" parent="83" vertex="1">
                    <mxGeometry y="40" width="165" height="31" as="geometry"/>
                </mxCell>
                <mxCell id="86" value="" style="line;strokeWidth=1;align=left;verticalAlign=middle;spacingTop=-1;spacingLeft=3;spacingRight=3;rotatable=0;labelPosition=right;points=[];portConstraint=eastwest;fontSize=12;swimlaneLine=1;" parent="83" vertex="1">
                    <mxGeometry y="71" width="165" height="8" as="geometry"/>
                </mxCell>
                <mxCell id="88" value="" style="endArrow=diamondThin;endFill=1;endSize=24;html=1;fontSize=12;swimlaneLine=1;exitX=0.996;exitY=-0.094;exitDx=0;exitDy=0;exitPerimeter=0;entryX=0;entryY=0.5;entryDx=0;entryDy=0;" parent="1" source="85" target="59" edge="1">
                    <mxGeometry width="160" relative="1" as="geometry">
                        <mxPoint x="403.5" y="808" as="sourcePoint"/>
                        <mxPoint x="461.5" y="794" as="targetPoint"/>
                    </mxGeometry>
                </mxCell>
            </root>
        </mxGraphModel>
    </diagram>
</mxfile>